<mxfile host="app.diagrams.net" modified="2023-07-31T08:26:47.916Z" agent="Mozilla/5.0 (Macintosh; Intel Mac OS X 10_15_7) AppleWebKit/537.36 (KHTML, like Gecko) Chrome/115.0.0.0 Safari/537.36 Edg/115.0.1901.188" etag="bnH4_zGg4m7CfK6Sm7n2" version="21.6.6" type="github">
  <diagram name="第 1 页" id="7ZDAjp5JQ54QAd0YlGhZ">
    <mxGraphModel dx="1026" dy="635" grid="1" gridSize="10" guides="1" tooltips="1" connect="1" arrows="1" fold="1" page="1" pageScale="1" pageWidth="827" pageHeight="1169" math="0" shadow="0">
      <root>
        <mxCell id="0" />
        <mxCell id="1" parent="0" />
        <mxCell id="4tZ19UkhJ3V6nd6kEJvu-1" value="" style="rounded=1;whiteSpace=wrap;html=1;strokeWidth=2;fillWeight=4;hachureGap=8;hachureAngle=45;fillColor=#1ba1e2;sketch=1;" vertex="1" parent="1">
          <mxGeometry x="140" y="170" width="120" height="60" as="geometry" />
        </mxCell>
        <mxCell id="4tZ19UkhJ3V6nd6kEJvu-2" value="" style="rhombus;whiteSpace=wrap;html=1;strokeWidth=2;fillWeight=-1;hachureGap=8;fillStyle=cross-hatch;fillColor=#006600;sketch=1;" vertex="1" parent="1">
          <mxGeometry x="140" y="290" width="120" height="60" as="geometry" />
        </mxCell>
        <mxCell id="4tZ19UkhJ3V6nd6kEJvu-3" value="Horizontal Flow Layout" style="swimlane;html=1;startSize=20;horizontal=0;childLayout=flowLayout;flowOrientation=west;resizable=0;interRankCellSpacing=50;containerType=tree;fontSize=12;" vertex="1" parent="1">
          <mxGeometry x="340" y="210" width="460" height="150" as="geometry" />
        </mxCell>
        <mxCell id="4tZ19UkhJ3V6nd6kEJvu-4" value="Start" style="whiteSpace=wrap;html=1;" vertex="1" parent="4tZ19UkhJ3V6nd6kEJvu-3">
          <mxGeometry x="40" y="55" width="100" height="40" as="geometry" />
        </mxCell>
        <mxCell id="4tZ19UkhJ3V6nd6kEJvu-5" value="Task" style="whiteSpace=wrap;html=1;" vertex="1" parent="4tZ19UkhJ3V6nd6kEJvu-3">
          <mxGeometry x="190" y="20" width="100" height="40" as="geometry" />
        </mxCell>
        <mxCell id="4tZ19UkhJ3V6nd6kEJvu-6" value="" style="html=1;rounded=1;curved=0;sourcePerimeterSpacing=0;targetPerimeterSpacing=0;startSize=6;endSize=6;noEdgeStyle=1;orthogonal=1;" edge="1" parent="4tZ19UkhJ3V6nd6kEJvu-3" source="4tZ19UkhJ3V6nd6kEJvu-4" target="4tZ19UkhJ3V6nd6kEJvu-5">
          <mxGeometry relative="1" as="geometry">
            <Array as="points">
              <mxPoint x="152" y="67.5" />
              <mxPoint x="178" y="40" />
            </Array>
          </mxGeometry>
        </mxCell>
        <mxCell id="4tZ19UkhJ3V6nd6kEJvu-7" value="Task" style="whiteSpace=wrap;html=1;" vertex="1" parent="4tZ19UkhJ3V6nd6kEJvu-3">
          <mxGeometry x="190" y="90" width="100" height="40" as="geometry" />
        </mxCell>
        <mxCell id="4tZ19UkhJ3V6nd6kEJvu-8" value="" style="html=1;rounded=1;curved=0;sourcePerimeterSpacing=0;targetPerimeterSpacing=0;startSize=6;endSize=6;noEdgeStyle=1;orthogonal=1;" edge="1" parent="4tZ19UkhJ3V6nd6kEJvu-3" source="4tZ19UkhJ3V6nd6kEJvu-4" target="4tZ19UkhJ3V6nd6kEJvu-7">
          <mxGeometry relative="1" as="geometry">
            <Array as="points">
              <mxPoint x="152" y="82.5" />
              <mxPoint x="178" y="110" />
            </Array>
          </mxGeometry>
        </mxCell>
        <mxCell id="4tZ19UkhJ3V6nd6kEJvu-9" value="End" style="whiteSpace=wrap;html=1;" vertex="1" parent="4tZ19UkhJ3V6nd6kEJvu-3">
          <mxGeometry x="340" y="55" width="100" height="40" as="geometry" />
        </mxCell>
        <mxCell id="4tZ19UkhJ3V6nd6kEJvu-10" value="" style="html=1;rounded=1;curved=0;sourcePerimeterSpacing=0;targetPerimeterSpacing=0;startSize=6;endSize=6;noEdgeStyle=1;orthogonal=1;" edge="1" parent="4tZ19UkhJ3V6nd6kEJvu-3" source="4tZ19UkhJ3V6nd6kEJvu-5" target="4tZ19UkhJ3V6nd6kEJvu-9">
          <mxGeometry relative="1" as="geometry">
            <Array as="points">
              <mxPoint x="302" y="40" />
              <mxPoint x="328" y="67.5" />
            </Array>
          </mxGeometry>
        </mxCell>
        <mxCell id="4tZ19UkhJ3V6nd6kEJvu-11" value="" style="html=1;rounded=1;curved=0;sourcePerimeterSpacing=0;targetPerimeterSpacing=0;startSize=6;endSize=6;noEdgeStyle=1;orthogonal=1;" edge="1" parent="4tZ19UkhJ3V6nd6kEJvu-3" source="4tZ19UkhJ3V6nd6kEJvu-7" target="4tZ19UkhJ3V6nd6kEJvu-9">
          <mxGeometry relative="1" as="geometry">
            <Array as="points">
              <mxPoint x="302" y="110" />
              <mxPoint x="328" y="82.5" />
            </Array>
          </mxGeometry>
        </mxCell>
      </root>
    </mxGraphModel>
  </diagram>
</mxfile>
